<svg xmlns="http://www.w3.org/2000/svg" xmlns:xlink="http://www.w3.org/1999/xlink" viewBox="0 0 800 800"><symbol id="prefix__a"><path d="M0 12.5L25 0l25 12.5L25 25z"/></symbol><symbol id="prefix__b"><path d="M0 12.5L25 25v25L0 37.5z"/></symbol><symbol id="prefix__c"><path d="M25 25l25-12.5v25L25 50z"/></symbol><g shape-rendering="crispEdges"><g transform="translate(-25 125)"><use xlink:href="#prefix__a" x="225" y="200" fill="hsl(84, 72%, 78%)"/><use xlink:href="#prefix__b" x="225" y="200" fill="#ffffd1"/><use xlink:href="#prefix__c" x="225" y="200" fill="#9dbc70"/></g><g transform="translate(-25 125)"><use xlink:href="#prefix__a" x="200" y="212.5" fill="hsl(84, 72%, 78%)"/><use xlink:href="#prefix__b" x="200" y="212.5" fill="#ffffd1"/><use xlink:href="#prefix__c" x="200" y="212.5" fill="#9dbc70"/></g><g transform="translate(-25 125)"><use xlink:href="#prefix__a" x="175" y="225" fill="hsl(84, 72%, 78%)"/><use xlink:href="#prefix__b" x="175" y="225" fill="#ffffd1"/><use xlink:href="#prefix__c" x="175" y="225" fill="#9dbc70"/></g><g transform="translate(-25 125)"><use xlink:href="#prefix__a" x="150" y="237.5" fill="hsl(84, 72%, 78%)"/><use xlink:href="#prefix__b" x="150" y="237.5" fill="#ffffd1"/><use xlink:href="#prefix__c" x="150" y="237.5" fill="#9dbc70"/></g><g transform="translate(-25 125)"><use xlink:href="#prefix__a" x="125" y="250" fill="hsl(84, 72%, 78%)"/><use xlink:href="#prefix__b" x="125" y="250" fill="#ffffd1"/><use xlink:href="#prefix__c" x="125" y="250" fill="#9dbc70"/></g><g transform="translate(-25 125)"><use xlink:href="#prefix__a" x="100" y="262.5" fill="hsl(84, 72%, 78%)"/><use xlink:href="#prefix__b" x="100" y="262.5" fill="#ffffd1"/><use xlink:href="#prefix__c" x="100" y="262.5" fill="#9dbc70"/></g><g transform="translate(-25 125)"><use xlink:href="#prefix__b" x="100" y="287.5" fill="#ffffd1"/><use xlink:href="#prefix__c" x="100" y="287.5" fill="#9dbc70"/></g><g transform="translate(-25 125)"><use xlink:href="#prefix__b" x="100" y="312.5" fill="#ffffd1"/><use xlink:href="#prefix__c" x="100" y="312.5" fill="#9dbc70"/></g><g transform="translate(-25 125)"><use xlink:href="#prefix__b" x="100" y="337.5" fill="#ffffd1"/><use xlink:href="#prefix__c" x="100" y="337.5" fill="#9dbc70"/></g><g transform="translate(-25 125)"><use xlink:href="#prefix__b" x="100" y="362.5" fill="#ffffd1"/><use xlink:href="#prefix__c" x="100" y="362.5" fill="#9dbc70"/></g><g transform="translate(-25 125)"><use xlink:href="#prefix__b" x="100" y="387.5" fill="#ffffd1"/><use xlink:href="#prefix__c" x="100" y="387.5" fill="#9dbc70"/></g><g transform="translate(-25 125)"><use xlink:href="#prefix__a" x="125" y="375" fill="hsl(84, 72%, 78%)"/><use xlink:href="#prefix__c" x="125" y="375" fill="#9dbc70"/></g><g transform="translate(-25 125)"><use xlink:href="#prefix__a" x="150" y="362.5" fill="hsl(84, 72%, 78%)"/><use xlink:href="#prefix__c" x="150" y="362.5" fill="#9dbc70"/></g><g transform="translate(-25 125)"><use xlink:href="#prefix__a" x="175" y="350" fill="hsl(84, 72%, 78%)"/><use xlink:href="#prefix__c" x="175" y="350" fill="#9dbc70"/></g><g transform="translate(-25 125)"><use xlink:href="#prefix__a" x="200" y="337.5" fill="hsl(84, 72%, 78%)"/><use xlink:href="#prefix__c" x="200" y="337.5" fill="#9dbc70"/></g><g transform="translate(-25 125)"><use xlink:href="#prefix__a" x="225" y="325" fill="hsl(84, 72%, 78%)"/><use xlink:href="#prefix__c" x="225" y="325" fill="#9dbc70"/></g><g transform="translate(-25 125)"><use xlink:href="#prefix__a" x="250" y="312.5" fill="hsl(84, 72%, 78%)"/><use xlink:href="#prefix__c" x="250" y="312.5" fill="#9dbc70"/></g><g transform="translate(-25 125)"><use xlink:href="#prefix__b" x="250" y="337.5" fill="#ffffd1"/><use xlink:href="#prefix__c" x="250" y="337.5" fill="#9dbc70"/></g><g transform="translate(-25 125)"><use xlink:href="#prefix__b" x="250" y="362.5" fill="#ffffd1"/><use xlink:href="#prefix__c" x="250" y="362.5" fill="#9dbc70"/></g><g transform="translate(-25 125)"><use xlink:href="#prefix__b" x="250" y="387.5" fill="#ffffd1"/><use xlink:href="#prefix__c" x="250" y="387.5" fill="#9dbc70"/></g><g transform="translate(-25 125)"><use xlink:href="#prefix__b" x="250" y="412.5" fill="#ffffd1"/><use xlink:href="#prefix__c" x="250" y="412.5" fill="#9dbc70"/></g><g transform="translate(-25 125)"><use xlink:href="#prefix__b" x="250" y="437.5" fill="#ffffd1"/><use xlink:href="#prefix__c" x="250" y="437.5" fill="#9dbc70"/></g><g transform="translate(-25 125)"><use xlink:href="#prefix__a" x="225" y="450" fill="hsl(84, 72%, 78%)"/><use xlink:href="#prefix__b" x="225" y="450" fill="#ffffd1"/><use xlink:href="#prefix__c" x="225" y="450" fill="#9dbc70"/></g><g transform="translate(-25 125)"><use xlink:href="#prefix__a" x="200" y="462.5" fill="hsl(84, 72%, 78%)"/><use xlink:href="#prefix__b" x="200" y="462.5" fill="#ffffd1"/><use xlink:href="#prefix__c" x="200" y="462.5" fill="#9dbc70"/></g><g transform="translate(-25 125)"><use xlink:href="#prefix__a" x="175" y="475" fill="hsl(84, 72%, 78%)"/><use xlink:href="#prefix__b" x="175" y="475" fill="#ffffd1"/><use xlink:href="#prefix__c" x="175" y="475" fill="#9dbc70"/></g><g transform="translate(-25 125)"><use xlink:href="#prefix__a" x="150" y="487.5" fill="hsl(84, 72%, 78%)"/><use xlink:href="#prefix__b" x="150" y="487.5" fill="#ffffd1"/><use xlink:href="#prefix__c" x="150" y="487.5" fill="#9dbc70"/></g><g transform="translate(-25 125)"><use xlink:href="#prefix__a" x="125" y="500" fill="hsl(84, 72%, 78%)"/><use xlink:href="#prefix__b" x="125" y="500" fill="#ffffd1"/><use xlink:href="#prefix__c" x="125" y="500" fill="#9dbc70"/></g><g transform="translate(-25 125)"><use xlink:href="#prefix__a" x="225" y="325" fill="hsl(84, 72%, 78%)"/><use xlink:href="#prefix__c" x="225" y="325" fill="#9dbc70"/></g><g transform="translate(-25 125)"><use xlink:href="#prefix__b" x="100" y="362.5" fill="#ffffd1"/><use xlink:href="#prefix__c" x="100" y="362.5" fill="#9dbc70"/></g><g transform="translate(-25 125)"><use xlink:href="#prefix__a" x="312.5" y="175" fill="hsl(84, 72%, 78%)"/><use xlink:href="#prefix__b" x="312.5" y="175" fill="#ffffd1"/><use xlink:href="#prefix__c" x="312.5" y="175" fill="#9dbc70"/></g><g transform="translate(-25 125)"><use xlink:href="#prefix__b" x="312.5" y="200" fill="#ffffd1"/><use xlink:href="#prefix__c" x="312.5" y="200" fill="#9dbc70"/></g><g transform="translate(-25 125)"><use xlink:href="#prefix__b" x="312.5" y="225" fill="#ffffd1"/><use xlink:href="#prefix__c" x="312.5" y="225" fill="#9dbc70"/></g><g transform="translate(-25 125)"><use xlink:href="#prefix__b" x="312.5" y="250" fill="#ffffd1"/><use xlink:href="#prefix__c" x="312.5" y="250" fill="#9dbc70"/></g><g transform="translate(-25 125)"><use xlink:href="#prefix__b" x="312.5" y="275" fill="#ffffd1"/><use xlink:href="#prefix__c" x="312.5" y="275" fill="#9dbc70"/></g><g transform="translate(-25 125)"><use xlink:href="#prefix__b" x="312.5" y="300" fill="#ffffd1"/><use xlink:href="#prefix__c" x="312.5" y="300" fill="#9dbc70"/></g><g transform="translate(-25 125)"><use xlink:href="#prefix__b" x="312.5" y="325" fill="#ffffd1"/><use xlink:href="#prefix__c" x="312.5" y="325" fill="#9dbc70"/></g><g transform="translate(-25 150)"><use xlink:href="#prefix__b" x="312.5" y="325" fill="#ffffd1"/><use xlink:href="#prefix__c" x="312.5" y="325" fill="#9dbc70"/></g><g transform="translate(-25 150)"><use xlink:href="#prefix__b" x="312.5" y="350" fill="#ffffd1"/><use xlink:href="#prefix__c" x="312.5" y="350" fill="#9dbc70"/></g><g transform="translate(-25 150)"><use xlink:href="#prefix__b" x="312.5" y="375" fill="#ffffd1"/><use xlink:href="#prefix__c" x="312.5" y="375" fill="#9dbc70"/></g><g transform="translate(-25 150)"><use xlink:href="#prefix__b" x="312.5" y="400" fill="#ffffd1"/><use xlink:href="#prefix__c" x="312.5" y="400" fill="#9dbc70"/></g><g transform="translate(-25 150)"><use xlink:href="#prefix__a" x="475" y="87.5" fill="hsl(84, 72%, 78%)"/><use xlink:href="#prefix__b" x="475" y="87.5" fill="#ffffd1"/><use xlink:href="#prefix__c" x="475" y="87.5" fill="#9dbc70"/></g><g transform="translate(-25 150)"><use xlink:href="#prefix__a" x="450" y="100" fill="hsl(84, 72%, 78%)"/><use xlink:href="#prefix__b" x="450" y="100" fill="#ffffd1"/><use xlink:href="#prefix__c" x="450" y="100" fill="#9dbc70"/></g><g transform="translate(-25 150)"><use xlink:href="#prefix__a" x="425" y="112.5" fill="hsl(84, 72%, 78%)"/><use xlink:href="#prefix__b" x="425" y="112.5" fill="#ffffd1"/><use xlink:href="#prefix__c" x="425" y="112.5" fill="#9dbc70"/></g><g transform="translate(-25 150)"><use xlink:href="#prefix__a" x="400" y="125" fill="hsl(84, 72%, 78%)"/><use xlink:href="#prefix__b" x="400" y="125" fill="#ffffd1"/><use xlink:href="#prefix__c" x="400" y="125" fill="#9dbc70"/></g><g transform="translate(-25 150)"><use xlink:href="#prefix__a" x="375" y="137.5" fill="hsl(84, 72%, 78%)"/><use xlink:href="#prefix__b" x="375" y="137.5" fill="#ffffd1"/><use xlink:href="#prefix__c" x="375" y="137.5" fill="#9dbc70"/></g><g transform="translate(-25 150)"><use xlink:href="#prefix__b" x="425" y="137.5" fill="#ffffd1"/><use xlink:href="#prefix__c" x="425" y="137.5" fill="#9dbc70"/></g><g transform="translate(-25 150)"><use xlink:href="#prefix__b" x="425" y="162.5" fill="#ffffd1"/><use xlink:href="#prefix__c" x="425" y="162.5" fill="#9dbc70"/></g><g transform="translate(-25 150)"><use xlink:href="#prefix__b" x="425" y="187.5" fill="#ffffd1"/><use xlink:href="#prefix__c" x="425" y="187.5" fill="#9dbc70"/></g><g transform="translate(-25 150)"><use xlink:href="#prefix__b" x="425" y="212.5" fill="#ffffd1"/><use xlink:href="#prefix__c" x="425" y="212.5" fill="#9dbc70"/></g><g transform="translate(-25 150)"><use xlink:href="#prefix__b" x="425" y="237.5" fill="#ffffd1"/><use xlink:href="#prefix__c" x="425" y="237.5" fill="#9dbc70"/></g><g transform="translate(-25 150)"><use xlink:href="#prefix__b" x="425" y="262.5" fill="#ffffd1"/><use xlink:href="#prefix__c" x="425" y="262.5" fill="#9dbc70"/></g><g transform="translate(-25 150)"><use xlink:href="#prefix__b" x="425" y="287.5" fill="#ffffd1"/><use xlink:href="#prefix__c" x="425" y="287.5" fill="#9dbc70"/></g><g transform="translate(-25 150)"><use xlink:href="#prefix__b" x="425" y="312.5" fill="#ffffd1"/><use xlink:href="#prefix__c" x="425" y="312.5" fill="#9dbc70"/></g><g transform="translate(-25 150)"><use xlink:href="#prefix__b" x="425" y="337.5" fill="#ffffd1"/><use xlink:href="#prefix__c" x="425" y="337.5" fill="#9dbc70"/></g><g transform="translate(-25 150)"><use xlink:href="#prefix__b" x="425" y="362.5" fill="#ffffd1"/><use xlink:href="#prefix__c" x="425" y="362.5" fill="#9dbc70"/></g><g transform="translate(-25 150)"><use xlink:href="#prefix__a" x="425" y="112.5" fill="hsl(84, 72%, 78%)"/><use xlink:href="#prefix__b" x="425" y="112.5" fill="#ffffd1"/><use xlink:href="#prefix__c" x="425" y="112.5" fill="#9dbc70"/></g><g transform="translate(-25 150)"><use xlink:href="#prefix__a" x="400" y="125" fill="hsl(84, 72%, 78%)"/><use xlink:href="#prefix__b" x="400" y="125" fill="#ffffd1"/><use xlink:href="#prefix__c" x="400" y="125" fill="#9dbc70"/></g><g transform="translate(-25 150)"><use xlink:href="#prefix__a" x="375" y="137.5" fill="hsl(84, 72%, 78%)"/><use xlink:href="#prefix__b" x="375" y="137.5" fill="#ffffd1"/><use xlink:href="#prefix__c" x="375" y="137.5" fill="#9dbc70"/></g><g transform="translate(25 125)"><use xlink:href="#prefix__a" x="50" y="512.5" fill="hsl(84, 72%, 78%)"/><use xlink:href="#prefix__b" x="50" y="512.5" fill="#ffffd1"/><use xlink:href="#prefix__c" x="50" y="512.5" fill="#9dbc70"/></g><g transform="translate(25 125)"><use xlink:href="#prefix__a" x="500" y="100" fill="hsl(84, 72%, 78%)"/><use xlink:href="#prefix__b" x="500" y="100" fill="#ffffd1"/><use xlink:href="#prefix__c" x="500" y="100" fill="#9dbc70"/></g><g transform="translate(25 125)"><use xlink:href="#prefix__b" x="500" y="125" fill="#ffffd1"/><use xlink:href="#prefix__c" x="500" y="125" fill="#9dbc70"/></g><g transform="translate(25 125)"><use xlink:href="#prefix__b" x="500" y="150" fill="#ffffd1"/><use xlink:href="#prefix__c" x="500" y="150" fill="#9dbc70"/></g><g transform="translate(25 125)"><use xlink:href="#prefix__b" x="500" y="175" fill="#ffffd1"/><use xlink:href="#prefix__c" x="500" y="175" fill="#9dbc70"/></g><g transform="translate(25 125)"><use xlink:href="#prefix__b" x="500" y="200" fill="#ffffd1"/><use xlink:href="#prefix__c" x="500" y="200" fill="#9dbc70"/></g><g transform="translate(25 125)"><use xlink:href="#prefix__b" x="500" y="225" fill="#ffffd1"/><use xlink:href="#prefix__c" x="500" y="225" fill="#9dbc70"/></g><g transform="translate(25 125)"><use xlink:href="#prefix__b" x="500" y="250" fill="#ffffd1"/><use xlink:href="#prefix__c" x="500" y="250" fill="#9dbc70"/></g><g transform="translate(25 125)"><use xlink:href="#prefix__b" x="500" y="275" fill="#ffffd1"/><use xlink:href="#prefix__c" x="500" y="275" fill="#9dbc70"/></g><g transform="translate(25 125)"><use xlink:href="#prefix__b" x="500" y="300" fill="#ffffd1"/><use xlink:href="#prefix__c" x="500" y="300" fill="#9dbc70"/></g><g transform="translate(25 125)"><use xlink:href="#prefix__b" x="500" y="337.5" fill="#ffffd1"/><use xlink:href="#prefix__c" x="500" y="337.5" fill="#9dbc70"/></g><g transform="translate(25 125)"><use xlink:href="#prefix__b" x="500" y="325" fill="#ffffd1"/><use xlink:href="#prefix__c" x="500" y="325" fill="#9dbc70"/></g><g transform="translate(25 125)"><use xlink:href="#prefix__b" x="500" y="362.5" fill="#ffffd1"/><use xlink:href="#prefix__c" x="500" y="362.5" fill="#9dbc70"/></g><g transform="translate(25 125)"><use xlink:href="#prefix__a" x="525" y="87.5" fill="hsl(84, 72%, 78%)"/><use xlink:href="#prefix__c" x="525" y="87.5" fill="#9dbc70"/></g><g transform="translate(25 125)"><use xlink:href="#prefix__a" x="550" y="75" fill="hsl(84, 72%, 78%)"/><use xlink:href="#prefix__c" x="550" y="75" fill="#9dbc70"/></g><g transform="translate(25 125)"><use xlink:href="#prefix__a" x="575" y="62.5" fill="hsl(84, 72%, 78%)"/><use xlink:href="#prefix__c" x="575" y="62.5" fill="#9dbc70"/></g><g transform="translate(25 125)"><use xlink:href="#prefix__a" x="600" y="50" fill="hsl(84, 72%, 78%)"/><use xlink:href="#prefix__c" x="600" y="50" fill="#9dbc70"/></g><g transform="translate(25 125)"><use xlink:href="#prefix__a" x="525" y="237.5" fill="hsl(84, 72%, 78%)"/><use xlink:href="#prefix__c" x="525" y="237.5" fill="#9dbc70"/></g><g transform="translate(25 125)"><use xlink:href="#prefix__a" x="550" y="225" fill="hsl(84, 72%, 78%)"/><use xlink:href="#prefix__c" x="550" y="225" fill="#9dbc70"/></g><g transform="translate(25 125)"><use xlink:href="#prefix__a" x="575" y="212.5" fill="hsl(84, 72%, 78%)"/><use xlink:href="#prefix__c" x="575" y="212.5" fill="#9dbc70"/></g><g transform="translate(25 125)"><use xlink:href="#prefix__a" x="600" y="200" fill="hsl(84, 72%, 78%)"/><use xlink:href="#prefix__c" x="600" y="200" fill="#9dbc70"/></g><g transform="translate(25 125)"><use xlink:href="#prefix__a" x="625" y="187.5" fill="hsl(84, 72%, 78%)"/><use xlink:href="#prefix__c" x="625" y="187.5" fill="#9dbc70"/></g><g transform="translate(25 125)"><use xlink:href="#prefix__a" x="525" y="350" fill="hsl(84, 72%, 78%)"/><use xlink:href="#prefix__c" x="525" y="350" fill="#9dbc70"/></g><g transform="translate(25 125)"><use xlink:href="#prefix__a" x="550" y="337.5" fill="hsl(84, 72%, 78%)"/><use xlink:href="#prefix__c" x="550" y="337.5" fill="#9dbc70"/></g><g transform="translate(25 125)"><use xlink:href="#prefix__a" x="575" y="325" fill="hsl(84, 72%, 78%)"/><use xlink:href="#prefix__c" x="575" y="325" fill="#9dbc70"/></g><g transform="translate(25 125)"><use xlink:href="#prefix__a" x="600" y="312.5" fill="hsl(84, 72%, 78%)"/><use xlink:href="#prefix__c" x="600" y="312.5" fill="#9dbc70"/></g><g transform="translate(25 125)"><use xlink:href="#prefix__a" x="625" y="300" fill="hsl(84, 72%, 78%)"/><use xlink:href="#prefix__c" x="625" y="300" fill="#9dbc70"/></g><g transform="translate(25 125)"><use xlink:href="#prefix__a" x="650" y="287.5" fill="hsl(84, 72%, 78%)"/><use xlink:href="#prefix__c" x="650" y="287.5" fill="#9dbc70"/></g><g transform="translate(25 125)"><use xlink:href="#prefix__a" x="625" y="37.5" fill="hsl(84, 72%, 78%)"/><use xlink:href="#prefix__c" x="625" y="37.5" fill="#9dbc70"/></g><g transform="translate(25 125)"><use xlink:href="#prefix__b" x="500" y="225" fill="#ffffd1"/><use xlink:href="#prefix__c" x="500" y="225" fill="#9dbc70"/></g><g transform="translate(25 125)"><use xlink:href="#prefix__b" x="500" y="337.5" fill="#ffffd1"/><use xlink:href="#prefix__c" x="500" y="337.5" fill="#9dbc70"/></g></g></svg>